<svg width="30" height="30" viewBox="0 0 30 30" fill="none" xmlns="http://www.w3.org/2000/svg">
<path d="M25.65 19.0124L23.4 16.7499V11.1749C23.4299 9.10471 22.7098 7.09357 21.3726 5.51285C20.0354 3.93213 18.1715 2.8886 16.125 2.57493C14.9372 2.41851 13.7298 2.5172 12.5832 2.8644C11.4367 3.2116 10.3773 3.79933 9.47588 4.58838C8.57444 5.37743 7.85165 6.34965 7.35573 7.44017C6.85981 8.53069 6.60216 9.71444 6.59997 10.9124V16.7499L4.34997 19.0124C4.06735 19.2998 3.8757 19.664 3.79897 20.0597C3.72224 20.4553 3.76384 20.8648 3.91857 21.237C4.07329 21.6091 4.33428 21.9274 4.66891 22.152C5.00353 22.3767 5.39695 22.4977 5.79997 22.4999H9.99997V22.9249C10.0584 24.1939 10.6174 25.388 11.5546 26.2456C12.4918 27.1031 13.7308 27.5542 15 27.4999C16.2692 27.5542 17.5081 27.1031 18.4453 26.2456C19.3825 25.388 19.9416 24.1939 20 22.9249V22.4999H24.2C24.603 22.4977 24.9964 22.3767 25.331 22.152C25.6657 21.9274 25.9266 21.6091 26.0814 21.237C26.2361 20.8648 26.2777 20.4553 26.201 20.0597C26.1242 19.664 25.9326 19.2998 25.65 19.0124ZM17.5 22.9249C17.4306 23.5262 17.132 24.0775 16.6663 24.464C16.2006 24.8506 15.6037 25.0425 15 24.9999C14.3962 25.0425 13.7993 24.8506 13.3336 24.464C12.8679 24.0775 12.5693 23.5262 12.5 22.9249V22.4999H17.5V22.9249ZM6.88747 19.9999L8.36247 18.5249C8.59643 18.2924 8.78205 18.0158 8.90862 17.7111C9.0352 17.4065 9.10023 17.0798 9.09997 16.7499V10.9124C9.10065 10.0692 9.2817 9.23583 9.63096 8.46832C9.98023 7.7008 10.4896 7.01687 11.125 6.46243C11.7517 5.89453 12.4944 5.46962 13.3016 5.21709C14.1089 4.96457 14.9613 4.89047 15.8 4.99993C17.2456 5.23465 18.5577 5.98369 19.4948 7.10915C20.432 8.23461 20.931 9.66072 20.9 11.1249V16.7499C20.8981 17.0789 20.9611 17.4051 21.0855 17.7097C21.21 18.0143 21.3933 18.2913 21.625 18.5249L23.1125 19.9999H6.88747Z" fill="white"/>
</svg>
