<svg width="30" height="31" viewBox="0 0 30 31" fill="none" xmlns="http://www.w3.org/2000/svg">
<path d="M14.9996 3.06995C12.5274 3.06995 10.1106 3.80306 8.05501 5.17658C5.9994 6.55009 4.39724 8.50233 3.45115 10.7864C2.50505 13.0705 2.25751 15.5838 2.73982 18.0086C3.22214 20.4333 4.41265 22.6606 6.1608 24.4088C7.90896 26.1569 10.1362 27.3474 12.561 27.8298C14.9858 28.3121 17.4991 28.0645 19.7832 27.1184C22.0673 26.1723 24.0195 24.5702 25.393 22.5146C26.7665 20.459 27.4996 18.0422 27.4996 15.5699C27.4996 13.9284 27.1763 12.303 26.5481 10.7864C25.92 9.26983 24.9992 7.89184 23.8385 6.73111C22.6777 5.57038 21.2998 4.64964 19.7832 4.02145C18.2666 3.39327 16.6412 3.06995 14.9996 3.06995ZM19.9996 16.8199H14.9996C14.6681 16.8199 14.3502 16.6882 14.1158 16.4538C13.8813 16.2194 13.7496 15.9015 13.7496 15.5699V10.5699C13.7496 10.2384 13.8813 9.92048 14.1158 9.68606C14.3502 9.45164 14.6681 9.31995 14.9996 9.31995C15.3312 9.31995 15.6491 9.45164 15.8835 9.68606C16.1179 9.92048 16.2496 10.2384 16.2496 10.5699V14.3199H19.9996C20.3312 14.3199 20.6491 14.4516 20.8835 14.6861C21.1179 14.9205 21.2496 15.2384 21.2496 15.5699C21.2496 15.9015 21.1179 16.2194 20.8835 16.4538C20.6491 16.6882 20.3312 16.8199 19.9996 16.8199Z" fill="#363636"/>
</svg>
