<?xml version="1.0" standalone="no"?>
<svg xmlns:xlink="http://www.w3.org/1999/xlink" id="wave" style="transform:rotate(180deg); transition: 0.3s" viewBox="0 0 1440 290" version="1.1" xmlns="http://www.w3.org/2000/svg"><defs><linearGradient id="sw-gradient-0" x1="0" x2="0" y1="1" y2="0"><stop stop-color="rgba(229, 54, 54, 1)" offset="0%"/><stop stop-color="rgba(217.623, 125.4, 125.4, 1)" offset="100%"/></linearGradient></defs><path style="transform:translate(0, 0px); opacity:1" fill="url(#sw-gradient-0)" d="M0,58L24,72.5C48,87,96,116,144,140.2C192,164,240,184,288,188.5C336,193,384,184,432,159.5C480,135,528,97,576,106.3C624,116,672,174,720,188.5C768,203,816,174,864,140.2C912,106,960,68,1008,67.7C1056,68,1104,106,1152,106.3C1200,106,1248,68,1296,43.5C1344,19,1392,10,1440,9.7C1488,10,1536,19,1584,62.8C1632,106,1680,184,1728,188.5C1776,193,1824,126,1872,91.8C1920,58,1968,58,2016,72.5C2064,87,2112,116,2160,130.5C2208,145,2256,145,2304,164.3C2352,184,2400,222,2448,236.8C2496,251,2544,242,2592,241.7C2640,242,2688,251,2736,246.5C2784,242,2832,222,2880,178.8C2928,135,2976,68,3024,62.8C3072,58,3120,116,3168,145C3216,174,3264,174,3312,159.5C3360,145,3408,116,3432,101.5L3456,87L3456,290L3432,290C3408,290,3360,290,3312,290C3264,290,3216,290,3168,290C3120,290,3072,290,3024,290C2976,290,2928,290,2880,290C2832,290,2784,290,2736,290C2688,290,2640,290,2592,290C2544,290,2496,290,2448,290C2400,290,2352,290,2304,290C2256,290,2208,290,2160,290C2112,290,2064,290,2016,290C1968,290,1920,290,1872,290C1824,290,1776,290,1728,290C1680,290,1632,290,1584,290C1536,290,1488,290,1440,290C1392,290,1344,290,1296,290C1248,290,1200,290,1152,290C1104,290,1056,290,1008,290C960,290,912,290,864,290C816,290,768,290,720,290C672,290,624,290,576,290C528,290,480,290,432,290C384,290,336,290,288,290C240,290,192,290,144,290C96,290,48,290,24,290L0,290Z"/><defs><linearGradient id="sw-gradient-1" x1="0" x2="0" y1="1" y2="0"><stop stop-color="rgba(229, 54, 54, 1)" offset="0%"/><stop stop-color="rgba(229, 54, 54, 1)" offset="100%"/></linearGradient></defs><path style="transform:translate(0, 50px); opacity:0.9" fill="url(#sw-gradient-1)" d="M0,58L24,72.5C48,87,96,116,144,111.2C192,106,240,68,288,58C336,48,384,68,432,82.2C480,97,528,106,576,120.8C624,135,672,155,720,174C768,193,816,213,864,207.8C912,203,960,174,1008,149.8C1056,126,1104,106,1152,125.7C1200,145,1248,203,1296,198.2C1344,193,1392,126,1440,111.2C1488,97,1536,135,1584,140.2C1632,145,1680,116,1728,91.8C1776,68,1824,48,1872,48.3C1920,48,1968,68,2016,72.5C2064,77,2112,68,2160,91.8C2208,116,2256,174,2304,169.2C2352,164,2400,97,2448,82.2C2496,68,2544,106,2592,145C2640,184,2688,222,2736,203C2784,184,2832,106,2880,96.7C2928,87,2976,145,3024,145C3072,145,3120,87,3168,96.7C3216,106,3264,184,3312,198.2C3360,213,3408,164,3432,140.2L3456,116L3456,290L3432,290C3408,290,3360,290,3312,290C3264,290,3216,290,3168,290C3120,290,3072,290,3024,290C2976,290,2928,290,2880,290C2832,290,2784,290,2736,290C2688,290,2640,290,2592,290C2544,290,2496,290,2448,290C2400,290,2352,290,2304,290C2256,290,2208,290,2160,290C2112,290,2064,290,2016,290C1968,290,1920,290,1872,290C1824,290,1776,290,1728,290C1680,290,1632,290,1584,290C1536,290,1488,290,1440,290C1392,290,1344,290,1296,290C1248,290,1200,290,1152,290C1104,290,1056,290,1008,290C960,290,912,290,864,290C816,290,768,290,720,290C672,290,624,290,576,290C528,290,480,290,432,290C384,290,336,290,288,290C240,290,192,290,144,290C96,290,48,290,24,290L0,290Z"/></svg>